<svg xmlns="http://www.w3.org/2000/svg" xmlns:xlink="http://www.w3.org/1999/xlink" width="240" height="240" viewBox="0 0 240 240">
    <defs>
        <path id="2pjduvv4ea" d="M0 0H240V240H0z"/>
    </defs>
    <g fill="none" fill-rule="evenodd">
        <g>
            <g transform="translate(-981 -699) translate(981 699)">
                <mask id="ydc41ad73b" fill="#fff">
                    <use xlink:href="#2pjduvv4ea"/>
                </mask>
                <g mask="url(#ydc41ad73b)" opacity=".1">
                    <g>
                        <path fill="#67D0FA" d="M316.522 123.626L350 65.336l-15.217-15.319-40.326 40.902-32.414-32.553 40.479-40.749L285.022 0 228.26 35.387c-13.852 8.665-22.06 24.11-21.533 40.52l.837 26.195L10.805 299.95c-5.739 5.75-8.965 13.564-8.965 21.715 0 8.15 3.226 15.965 8.964 21.715 5.715 5.8 13.494 9.062 21.609 9.062 8.115 0 15.894-3.262 21.609-9.062l197.065-197.847 23.74 1.072c17.075.804 33.166-8.064 41.695-22.978z" transform="translate(16 -15)"/>
                        <path fill="#3D3E49" d="M214.122 268.96l49.574-49.498 75.174 74.91c6.458 6.47 11.1 14.252 11.1 23.424 0 9.171-3.631 17.965-10.09 24.434-13.42 13.458-37.088 15.098-50.508 1.64l-75.25-74.91z" transform="translate(16 -15)"/>
                        <path fill="#3D3E49" d="M141.861 168.074L63.568 89.334 18.87 80.043 0 17.617 16.207 1.379 81.033 17.617 84.557 68.344 162.851 147.008z" transform="translate(16 -15)"/>
                        <path fill="#3D3E49" d="M185.32 211.321L206.533 190.108 249.751 233.537 228.537 254.751z" transform="translate(16 -15)"/>
                    </g>
                </g>
            </g>
        </g>
    </g>
</svg>
